<svg width="99" height="41" viewBox="0 0 99 41" fill="none" xmlns="http://www.w3.org/2000/svg">
<path d="M27.5566 8.21467C28.448 8.31215 29.063 7.73531 29.1147 7.06787C28.9884 7.01564 28.8669 6.95311 28.7514 6.88095L28.9395 6.52085C28.9395 6.52085 28.0976 5.54148 26.9134 6.51282C26.9202 6.50143 26.9261 6.48955 26.931 6.47727C27.3403 5.65387 26.9534 4.87749 26.2972 4.62061C26.2085 4.72255 26.1118 4.81764 26.0079 4.90501L25.7128 4.62061C25.7128 4.62061 24.4757 5.12176 25.1154 6.54608C23.9101 5.51396 23.0481 6.52085 23.0481 6.52085L23.2351 6.88095C23.1199 6.95228 22.9987 7.01404 22.8729 7.06558C22.9235 7.7399 23.5479 8.32706 24.4522 8.21238C23.1998 9.02316 23.896 10.0771 23.896 10.0771L24.304 10.0094C24.3372 10.138 24.3611 10.2687 24.3758 10.4005C25.0648 10.5576 25.8374 10.1344 25.9797 9.22615C25.988 9.18028 25.995 9.1344 26.0032 9.08968C26.0032 9.1344 26.0174 9.18028 26.0232 9.22615C26.1667 10.1344 26.9393 10.5576 27.6284 10.4005C27.643 10.2687 27.6669 10.138 27.7001 10.0094L28.1081 10.0771C28.1081 10.0771 28.8019 9.02317 27.5566 8.21353" fill="#E82629"/>
<path d="M16.6018 7.53113C16.5544 7.42379 16.472 7.33471 16.3674 7.27769C16.2628 7.22067 16.1418 7.1989 16.0232 7.21576C14.7721 7.38204 14.1817 8.41875 14.0724 8.65958L7.87172 22.756C7.83767 22.8318 7.82235 22.9144 7.82698 22.997C7.83162 23.0797 7.85608 23.1601 7.89841 23.2318C7.94074 23.3036 7.99974 23.3646 8.07068 23.41C8.14161 23.4555 8.2225 23.484 8.30682 23.4934C9.43335 23.6081 10.6587 23.2835 11.0561 22.4257L12.0075 20.373H19.1359L20.0226 22.4257C20.3695 23.2744 21.576 23.6058 22.9365 23.5072C23.0224 23.4994 23.1051 23.4719 23.1778 23.4268C23.2506 23.3817 23.3113 23.3204 23.355 23.2479C23.3987 23.1754 23.424 23.0938 23.4289 23.0099C23.4339 22.926 23.4182 22.8421 23.3834 22.7652L16.6018 7.53113ZM13.2057 17.6333L15.5576 12.28L17.9459 17.6333H13.2057Z" fill="#E82629"/>
<path d="M25.1648 11.2903C25.0846 11.2807 25.0033 11.2878 24.9262 11.3111C24.849 11.3345 24.7778 11.3735 24.7173 11.4256C24.6567 11.4777 24.6082 11.5418 24.5748 11.6135C24.5415 11.6853 24.5242 11.7631 24.5239 11.8419V21.6917C24.5239 22.7376 25.2506 23.389 26.8393 23.5174C26.9177 23.5236 26.9966 23.5139 27.071 23.4888C27.1453 23.4638 27.2135 23.424 27.2713 23.3719C27.3291 23.3199 27.3752 23.2567 27.4067 23.1864C27.4382 23.1161 27.4544 23.0402 27.4543 22.9635V13.257C27.4543 12.2524 26.6382 11.4657 25.1648 11.2903Z" fill="#E82629"/>
<path d="M49.9005 11.3462C48.8892 11.204 47.5604 11.3829 47.0536 12.4678L44.0138 18.8979L40.6319 11.6593C40.5839 11.5584 40.5061 11.4737 40.4085 11.4161C40.3109 11.3585 40.1979 11.3306 40.0839 11.3359C39.3454 11.3634 38.5646 11.5366 38.0625 12.5343L35.0886 18.8979L31.9853 12.3543C31.4503 11.4368 30.5366 11.2143 29.1631 11.3508C29.0732 11.3603 28.987 11.3904 28.9114 11.4387C28.8359 11.4871 28.7732 11.5522 28.7285 11.6288C28.6838 11.7054 28.6585 11.7913 28.6545 11.8793C28.6505 11.9674 28.668 12.0551 28.7056 12.1352L33.594 22.4438C34.0338 23.2982 34.7958 23.5631 35.6848 23.5906C35.7962 23.5931 35.9059 23.5636 36.0004 23.506C36.0948 23.4483 36.1699 23.3649 36.2163 23.266L39.5512 16.1811L42.5028 22.4094C42.8285 23.0493 43.5223 23.6342 44.6194 23.6147C44.7254 23.6123 44.8285 23.5807 44.9168 23.5235C45.0051 23.4662 45.0749 23.3857 45.118 23.2913L48.9257 15.2247L50.3368 12.1215C50.3724 12.0427 50.3887 11.9569 50.3846 11.8709C50.3805 11.7849 50.356 11.701 50.313 11.6258C50.2701 11.5506 50.2098 11.4861 50.137 11.4374C50.0643 11.3887 49.9809 11.3571 49.8935 11.3451" fill="#E82629"/>
<path d="M60.8929 12.9853C60.3079 12.4105 59.6143 11.9517 58.8503 11.6343C58.0565 11.304 57.2016 11.1362 56.3385 11.1412C55.482 11.1369 54.6338 11.3047 53.8468 11.6343C53.0834 11.954 52.3893 12.4124 51.8018 12.9853C51.2148 13.5584 50.7437 14.2341 50.4131 14.9773C50.0748 15.7484 49.9004 16.5784 49.9004 17.4171C49.9004 18.2558 50.0748 19.0858 50.4131 19.8569C51.0745 21.3621 52.3038 22.5618 53.8468 23.2078C54.6336 23.5381 55.482 23.706 56.3385 23.701C56.9808 23.7022 57.618 23.5911 58.22 23.373C58.8168 23.1536 59.3783 22.8519 59.8875 22.4773C60.4919 23.381 61.134 23.5094 62.1852 23.5232C62.2607 23.5243 62.3357 23.5107 62.4058 23.4833C62.4758 23.4559 62.5396 23.4152 62.5934 23.3636C62.6473 23.3119 62.69 23.2504 62.7193 23.1825C62.7485 23.1146 62.7637 23.0418 62.7638 22.9682V17.4211C62.7697 16.5819 62.6 15.7504 62.2652 14.9773C61.9414 14.2345 61.4757 13.5585 60.8929 12.9853ZM59.5641 18.7434C59.2165 19.5692 58.5494 20.2283 57.7073 20.5782C57.2748 20.7584 56.8089 20.8497 56.3385 20.8466C55.8701 20.8502 55.406 20.7588 54.9756 20.5782C54.5587 20.4027 54.1793 20.1521 53.8573 19.8397C53.537 19.5258 53.2807 19.1553 53.1024 18.7479C52.9185 18.3303 52.8248 17.8802 52.8272 17.4257C52.8244 16.9659 52.918 16.5105 53.1024 16.0874C53.2805 15.6823 53.5368 15.3144 53.8573 15.0036C54.1809 14.6935 54.5615 14.4457 54.9792 14.2731C55.4102 14.0945 55.8737 14.0025 56.3421 14.0025C56.8104 14.0025 57.2739 14.0945 57.705 14.2731C58.1211 14.4448 58.4996 14.6928 58.8198 15.0036C59.137 15.3144 59.3891 15.6825 59.5618 16.0874C59.7439 16.511 59.8363 16.9663 59.8334 17.4257C59.8358 17.8798 59.7434 18.3297 59.5618 18.7479" fill="#E82629"/>
<path d="M74.6713 6.52741C74.5914 6.51743 74.5102 6.52424 74.4332 6.54739C74.3562 6.57055 74.2852 6.60951 74.2249 6.66166C74.1647 6.7138 74.1165 6.77793 74.0838 6.84972C74.0511 6.92151 74.0345 6.99931 74.0351 7.07788V12.0871C73.5216 11.7617 72.965 11.5063 72.3806 11.3279C71.7798 11.1462 71.154 11.0553 70.525 11.0584C69.6644 11.0526 68.8119 11.2209 68.0214 11.5527C66.4845 12.1931 65.2621 13.3898 64.6112 14.891C64.2775 15.6637 64.1056 16.4936 64.1056 17.332C64.1056 18.1704 64.2775 19.0003 64.6112 19.7729C64.9373 20.519 65.4049 21.1984 65.9894 21.7752C66.5732 22.349 67.2652 22.8073 68.0273 23.125C68.8181 23.449 69.6672 23.6159 70.525 23.6159C71.3827 23.6159 72.2318 23.449 73.0226 23.125C73.4755 22.9304 73.9056 22.689 74.3056 22.4048C74.3059 22.4071 74.3059 22.4094 74.3056 22.4117C74.3373 22.3853 74.3702 22.3613 74.3996 22.3372C74.4937 22.2672 74.5878 22.1984 74.676 22.125C75.193 21.73 75.8137 21.4852 76.4669 21.4186C76.6059 21.4033 76.7342 21.3386 76.8273 21.2368C76.9204 21.1351 76.9717 21.0034 76.9714 20.867V8.76482C76.9714 7.15357 75.632 6.65586 74.6783 6.52741M73.7658 18.6617C73.4076 19.4853 72.7375 20.1425 71.8949 20.4966C71.4634 20.6752 70.9984 20.7639 70.5297 20.7569C70.059 20.7603 69.5926 20.669 69.1597 20.4885C68.3171 20.1397 67.6501 19.4802 67.3041 18.6537C67.0333 18.0275 66.9599 17.3369 67.0931 16.6698C67.2263 16.0028 67.5601 15.3895 68.052 14.9082C68.3735 14.5992 68.7511 14.3511 69.1656 14.1766C69.597 13.9987 70.0607 13.9071 70.5291 13.9071C70.9975 13.9071 71.4611 13.9987 71.8926 14.1766C72.3077 14.3506 72.6857 14.5987 73.0073 14.9082C73.3288 15.2194 73.5855 15.5881 73.7635 15.9942C73.9458 16.415 74.0398 16.8671 74.0398 17.3239C74.0398 17.7807 73.9458 18.2329 73.7635 18.6537" fill="#E82629"/>
<path d="M90.6733 14.9785C90.3509 14.2355 89.8863 13.559 89.3045 12.9854C89.0236 12.7093 88.7165 12.4597 88.3873 12.24C88.0316 12.004 87.654 11.8009 87.2596 11.6333C86.4656 11.3037 85.6107 11.1366 84.7478 11.1425C83.8922 11.137 83.0446 11.3041 82.2584 11.6333C81.4948 11.9531 80.8007 12.412 80.2135 12.9854C79.6256 13.5587 79.1536 14.2349 78.8223 14.9785C78.483 15.75 78.308 16.5806 78.308 17.4201C78.308 18.2595 78.483 19.0902 78.8223 19.8616C79.1533 20.6061 79.6252 21.2831 80.2135 21.857C80.8011 22.4297 81.4951 22.8882 82.2584 23.2079C83.0446 23.5376 83.8921 23.7051 84.7478 23.6999C85.6108 23.7054 86.4657 23.5379 87.2596 23.2079C87.6543 23.0408 88.0319 22.8377 88.3873 22.6013C88.7162 22.3816 89.0232 22.1324 89.3045 21.857C89.8867 21.2827 90.3512 20.6055 90.6733 19.8616C91.0032 19.0878 91.1731 18.2581 91.1731 17.4201C91.1731 16.582 91.0032 15.7523 90.6733 14.9785ZM88.2438 17.4201C88.2474 17.8746 88.1553 18.325 87.9734 18.7435C87.6258 19.5689 86.9593 20.228 86.1178 20.5783C85.9136 20.6627 85.7018 20.7284 85.4851 20.7744C85.2425 20.8226 84.9955 20.8468 84.7478 20.8467C84.2819 20.8493 83.8203 20.7584 83.392 20.5795C83.2171 20.5048 83.0484 20.417 82.8875 20.3169C82.664 20.1815 82.4573 20.0214 82.2713 19.8398C81.9496 19.527 81.6932 19.1562 81.5164 18.748C81.3318 18.3305 81.2365 17.8805 81.2365 17.4258C81.2365 16.9711 81.3318 16.5211 81.5164 16.1035C81.6935 15.6952 81.9498 15.3241 82.2713 15.0106C82.4573 14.8291 82.664 14.669 82.8875 14.5336C83.0485 14.4342 83.2172 14.3471 83.392 14.2732C83.8198 14.0922 84.2815 14 84.7478 14.0026C84.9956 14.0027 85.2426 14.0276 85.4851 14.0771C86.146 14.2172 86.7519 14.5387 87.2314 15.0038C87.5494 15.3139 87.8016 15.6822 87.9734 16.0875C88.1556 16.5107 88.2476 16.9656 88.2438 17.4246" fill="#E82629"/>
<path d="M31.677 34.9672C30.9714 34.9672 30.4552 34.473 30.4552 33.6243C30.4552 32.4718 31.3536 31.4397 32.6118 30.903C32.6036 30.7803 32.6036 30.6599 32.6036 30.5291C32.6036 30.1851 32.6118 29.8411 32.6213 29.497C32.118 29.5062 31.5629 29.5142 31.0302 29.5142C30.9832 29.519 30.9356 29.5132 30.8911 29.4975C30.8467 29.4817 30.8065 29.4563 30.7735 29.4232C30.7406 29.3901 30.7158 29.3501 30.701 29.3063C30.6862 29.2624 30.6817 29.2159 30.688 29.1702C30.685 29.1288 30.691 29.0873 30.7056 29.0484C30.7203 29.0095 30.7433 28.9741 30.7732 28.9446C30.803 28.9151 30.839 28.8921 30.8786 28.8772C30.9183 28.8623 30.9607 28.8559 31.0032 28.8582H31.4736C31.8593 28.8582 32.2544 28.8582 32.6601 28.8502C32.6683 28.5463 32.6883 28.2355 32.7142 27.9649C32.7219 27.8842 32.7622 27.8098 32.8261 27.758C32.89 27.7062 32.9724 27.6812 33.0552 27.6885H33.0999C33.3162 27.7057 33.4068 27.8032 33.4068 27.9649V28.0096C33.3797 28.2608 33.3621 28.528 33.3433 28.8238C34.4298 28.7934 35.5138 28.7034 36.59 28.5543H36.6523C36.7341 28.5509 36.814 28.5791 36.8745 28.6328C36.9351 28.6865 36.9714 28.7613 36.9757 28.841V28.903C36.9757 29.075 36.8687 29.1885 36.6617 29.2149C35.6622 29.3433 34.5204 29.4213 33.2904 29.4661C33.2798 29.786 33.2715 30.1071 33.2715 30.4351V30.6702C33.7736 30.5473 34.2898 30.4883 34.8073 30.4947C34.8438 30.3468 34.8708 30.2172 34.8884 30.114C34.9006 30.0478 34.938 29.9885 34.9933 29.9483C35.0485 29.908 35.1174 29.8898 35.186 29.8972C35.2101 29.8964 35.2343 29.8991 35.2577 29.9053C35.2947 29.9044 35.3316 29.9106 35.3661 29.9237C35.4007 29.9368 35.4322 29.9565 35.4589 29.9815C35.4856 30.0066 35.5069 30.0366 35.5216 30.0698C35.5363 30.1029 35.5442 30.1386 35.5446 30.1748V30.2264C35.527 30.3296 35.4999 30.442 35.4729 30.5555C36.9393 30.7723 37.6848 31.622 37.6848 32.7837C37.6848 34.1886 36.3995 35.2803 34.4663 35.348H34.4475C34.4017 35.3501 34.3559 35.3433 34.3128 35.3278C34.2698 35.3124 34.2303 35.2887 34.1969 35.2581C34.1634 35.2275 34.1366 35.1906 34.1181 35.1497C34.0995 35.1088 34.0895 35.0647 34.0888 35.02V35.0016C34.0862 34.9601 34.0924 34.9185 34.1071 34.8795C34.1218 34.8404 34.1446 34.8048 34.1741 34.7747C34.2036 34.7447 34.2391 34.7209 34.2785 34.7049C34.3178 34.6889 34.3601 34.681 34.4028 34.6817C36.0044 34.6026 36.9298 33.7975 36.9298 32.7482C36.9298 31.8812 36.3725 31.2573 35.3212 31.1278C35.0237 32.2023 34.4298 33.2597 33.8089 33.8801C33.8536 33.9844 33.8995 34.0968 33.963 34.2241C33.9911 34.2777 34.006 34.337 34.0065 34.3973C34.0063 34.4598 33.9875 34.5209 33.9525 34.5732C33.9174 34.6255 33.8675 34.6668 33.8089 34.692C33.7542 34.7221 33.6938 34.7412 33.6314 34.7482C33.5796 34.7488 33.5288 34.7352 33.4845 34.7091C33.4402 34.6829 33.4044 34.6452 33.3809 34.6003C33.3444 34.5315 33.308 34.4443 33.2727 34.3709C32.6612 34.8399 32.1579 34.9776 31.6805 34.9776M32.6495 31.5372C31.6593 32.0486 31.1384 32.864 31.1384 33.5831C31.1384 34.0601 31.3995 34.2929 31.7675 34.2929C32.1003 34.2929 32.5495 34.1381 33.0352 33.7195C32.8116 33.0123 32.6819 32.28 32.6495 31.5406M34.6803 31.0555C34.2074 31.0454 33.7362 31.1156 33.288 31.2631C33.2982 31.9216 33.3914 32.5763 33.5655 33.2126C34.0837 32.5746 34.463 31.8402 34.6803 31.0544" fill="#E82629"/>
<path d="M34.4676 35.4359C34.4084 35.4399 34.349 35.4322 34.2929 35.4133C34.2369 35.3943 34.1853 35.3645 34.1413 35.3256C34.0974 35.2867 34.062 35.2396 34.0372 35.187C34.0124 35.1344 33.9989 35.0774 33.9973 35.0196C33.9924 34.965 33.9992 34.91 34.0171 34.8581C34.035 34.8061 34.0638 34.7584 34.1016 34.7178C34.1393 34.6772 34.1853 34.6446 34.2365 34.6222C34.2878 34.5997 34.3432 34.5878 34.3994 34.5872C35.8811 34.515 36.8383 33.7925 36.8383 32.7443C36.8383 31.9152 36.3115 31.3682 35.3907 31.2248C35.0956 32.2443 34.5382 33.2592 33.9196 33.9003L33.9338 33.929C33.9655 34.0081 34.002 34.0941 34.0514 34.1893C34.0855 34.2558 34.1029 34.3293 34.1019 34.4037C34.1016 34.4827 34.0782 34.5599 34.0344 34.6263C33.9907 34.6927 33.9284 34.7456 33.855 34.7787C33.7844 34.8107 33.7081 34.829 33.6304 34.8326C33.5617 34.8332 33.4942 34.8153 33.4353 34.7809C33.3764 34.7465 33.3284 34.697 33.2964 34.6377C33.2741 34.5953 33.2552 34.5494 33.2329 34.5035C32.712 34.8808 32.2146 35.0563 31.6795 35.0563C30.8928 35.0563 30.3636 34.4829 30.3636 33.6228C30.3636 32.5104 31.2068 31.4255 32.5179 30.8452C32.5179 30.742 32.5179 30.6388 32.5179 30.5287C32.5179 30.2133 32.5179 29.8991 32.5321 29.5906C32.0535 29.5975 31.5349 29.6044 31.0375 29.6044C30.9789 29.6089 30.92 29.6009 30.8649 29.5811C30.8098 29.5612 30.7598 29.5299 30.7183 29.4894C30.6768 29.4488 30.6448 29.3999 30.6246 29.3461C30.6044 29.2923 30.5964 29.2349 30.6012 29.1778C30.5984 29.1244 30.607 29.0711 30.6265 29.0212C30.646 28.9713 30.6759 28.9259 30.7145 28.8879C30.753 28.8499 30.7992 28.8202 30.8501 28.8006C30.9011 28.781 30.9557 28.772 31.0104 28.7741H31.4808C31.8336 28.7741 32.2016 28.7741 32.5732 28.7741C32.5826 28.4886 32.6014 28.2007 32.6261 27.9714C32.6351 27.8676 32.6858 27.7716 32.7671 27.7042C32.8483 27.6367 32.9536 27.6033 33.06 27.6113H33.1059C33.4375 27.6376 33.5045 27.8269 33.5045 27.9794V28.023C33.481 28.2523 33.4646 28.4817 33.4481 28.7431C34.4935 28.709 35.5362 28.6183 36.5714 28.4714H36.649C36.7533 28.4666 36.8552 28.5021 36.9329 28.5702C37.0106 28.6382 37.0577 28.7333 37.0641 28.8349V28.9094C37.0641 29.1319 36.9206 29.2787 36.669 29.3108C35.7588 29.4255 34.6805 29.5104 33.3764 29.5597C33.367 29.851 33.3599 30.1434 33.3599 30.4416V30.562C33.809 30.4592 34.2686 30.4061 34.7299 30.4037C34.7569 30.289 34.7781 30.1835 34.7934 30.0975C34.8089 30.0103 34.8577 29.932 34.9298 29.8782C35.0019 29.8244 35.0922 29.7991 35.1826 29.8074C35.216 29.8063 35.2494 29.8106 35.2814 29.82C35.3762 29.8218 35.4664 29.86 35.5325 29.9264C35.5986 29.9928 35.6351 30.0819 35.6341 30.1743V30.226C35.6212 30.3143 35.6024 30.398 35.5836 30.4817C36.9794 30.7202 37.7755 31.5539 37.7755 32.7833C37.7755 34.2742 36.415 35.3693 34.4653 35.4393M35.2473 31.0276L35.3296 31.0379C36.3879 31.1698 37.0206 31.8085 37.0206 32.7478C37.0206 33.8946 35.994 34.6973 34.4041 34.7719C34.3733 34.7704 34.3425 34.7755 34.3138 34.7866C34.2851 34.7978 34.2592 34.8148 34.2378 34.8365C34.2164 34.8582 34.2 34.8842 34.1898 34.9126C34.1795 34.941 34.1756 34.9712 34.1784 35.0012C34.1774 35.0354 34.1836 35.0694 34.1966 35.1012C34.2096 35.133 34.2292 35.1618 34.2541 35.1858C34.2791 35.2099 34.3088 35.2288 34.3414 35.2412C34.3741 35.2536 34.4091 35.2594 34.4441 35.2581C36.3021 35.1927 37.5874 34.1744 37.5874 32.7833C37.5874 31.6239 36.8113 30.8441 35.4554 30.6445L35.3555 30.6296L35.3778 30.5344C35.406 30.4198 35.4331 30.3143 35.4484 30.211V30.1743C35.4484 30.0299 35.3072 30.0012 35.2461 29.9954C35.2258 29.9899 35.2048 29.9872 35.1838 29.9874C35.0662 29.9874 34.9968 30.0344 34.978 30.1296C34.9592 30.2248 34.9333 30.3659 34.898 30.5149L34.8792 30.5849H34.8075C34.2967 30.5804 33.7876 30.6409 33.2929 30.765L33.1753 30.7948V30.4416C33.1753 30.1124 33.1835 29.7902 33.1929 29.4691V29.3854H33.2799C34.6181 29.3372 35.7176 29.2558 36.6443 29.1342C36.7995 29.1147 36.8795 29.0413 36.8795 28.9129V28.8509C36.878 28.8233 36.8708 28.7961 36.8584 28.7712C36.846 28.7463 36.8286 28.724 36.8072 28.7057C36.7859 28.6874 36.7609 28.6735 36.734 28.6648C36.707 28.656 36.6785 28.6527 36.6501 28.6548H36.5866C35.512 28.8039 34.4296 28.8939 33.3446 28.9243H33.2411L33.247 28.8257C33.2658 28.5264 33.2846 28.2581 33.3093 28.0092V27.9736C33.3093 27.8716 33.2717 27.8005 33.0906 27.7856H33.053C33.0237 27.7826 32.9941 27.7853 32.9658 27.7935C32.9376 27.8018 32.9114 27.8154 32.8886 27.8337C32.8659 27.8519 32.847 27.8744 32.8333 27.8998C32.8195 27.9252 32.811 27.9531 32.8084 27.9817C32.7825 28.2386 32.7614 28.5493 32.7543 28.8613V28.9461H32.6661C32.2604 28.9542 31.8641 28.9542 31.4761 28.9542H31.0057C30.9754 28.9518 30.9449 28.956 30.9165 28.9664C30.888 28.9769 30.8622 28.9933 30.841 29.0145C30.8198 29.0358 30.8036 29.0613 30.7937 29.0893C30.7837 29.1173 30.7802 29.1471 30.7835 29.1766C30.7835 29.3441 30.8587 29.4163 31.0363 29.4232C31.5631 29.4232 32.1205 29.4163 32.6226 29.406H32.7202V29.5012C32.7108 29.8383 32.7026 30.1835 32.7026 30.5333C32.7026 30.6617 32.7026 30.781 32.7108 30.9003V30.9633L32.6508 30.9886C31.3749 31.5333 30.5494 32.57 30.5494 33.6262C30.5494 34.3877 30.9916 34.8797 31.6783 34.8797C32.2087 34.8797 32.6826 34.6996 33.207 34.2937L33.3023 34.2214L33.394 34.4198C33.4164 34.468 33.4363 34.5173 33.4587 34.5574C33.4742 34.5874 33.4982 34.6125 33.5277 34.6297C33.5573 34.647 33.5912 34.6557 33.6257 34.6549C33.6753 34.6515 33.7239 34.6394 33.7691 34.6193C33.8114 34.6014 33.8473 34.5717 33.8724 34.5339C33.8975 34.4962 33.9106 34.4521 33.9102 34.4072C33.9091 34.3608 33.8971 34.3153 33.875 34.2742C33.8279 34.1744 33.7903 34.0861 33.7574 34.0035L33.6986 33.8682L33.7409 33.8246C34.3618 33.2008 34.9451 32.1342 35.2285 31.109L35.2473 31.0276ZM31.7642 34.382C31.3197 34.382 31.0422 34.0758 31.0422 33.5792C31.0422 32.765 31.6407 31.9519 32.6026 31.4542L32.732 31.3877L32.7402 31.5276C32.7725 32.2611 32.9009 32.9876 33.1224 33.6893L33.1412 33.7466L33.0965 33.7856C32.4909 34.304 32.0029 34.3808 31.7642 34.3808M32.5615 31.6835C31.7489 32.1423 31.2291 32.8808 31.2291 33.5792C31.2291 33.9794 31.4196 34.1996 31.7642 34.1996C31.9688 34.1996 32.3886 34.1331 32.9236 33.6893C32.724 33.0366 32.6025 32.3635 32.5615 31.6835ZM33.521 33.4037L33.4728 33.234C33.2976 32.5904 33.2028 31.9285 33.1906 31.2627V31.1927L33.2529 31.1698C33.7124 31.0189 34.1958 30.949 34.6805 30.9633H34.7981L34.7687 31.078C34.5474 31.8766 34.1612 32.6227 33.6339 33.2707L33.521 33.4037ZM33.3799 31.3223C33.3947 31.8912 33.4708 32.457 33.6069 33.0104C34.0315 32.4469 34.3523 31.8155 34.5546 31.1445C34.1557 31.1454 33.7592 31.2053 33.3787 31.3223" fill="#E82629"/>
<path d="M53.1095 30.0748V30.2216C53.1111 30.2791 53.1079 30.3366 53.1001 30.3936C53.0907 30.5151 53.0824 30.6631 53.073 30.7915C53.1636 30.7055 53.2365 30.6275 53.3517 30.5151C53.4556 30.4237 53.5665 30.3402 53.6833 30.2651C54.4759 29.7044 55.2309 29.4016 56.0858 29.4016C57.578 29.4016 58.5317 30.4337 58.5317 31.8099C58.5317 32.9062 58.1178 33.7193 57.1911 34.2365C56.5702 34.5806 55.6801 34.756 54.8393 34.764C54.5876 34.764 54.47 34.6 54.4618 34.3833C54.4576 34.335 54.4641 34.2864 54.4811 34.2408C54.4981 34.1953 54.525 34.1539 54.56 34.1195C54.595 34.0851 54.6373 34.0586 54.6839 34.0418C54.7305 34.0249 54.7803 34.0182 54.8299 34.0221C55.5354 34.0129 56.3409 33.8569 56.8289 33.5805C57.4592 33.217 57.7697 32.6826 57.7697 31.7847C57.7697 30.7652 57.0583 30.0645 56.0423 30.0645C55.2791 30.0645 54.5676 30.3661 53.8762 30.8844C53.5965 31.0968 53.3295 31.3246 53.0766 31.5668C53.0672 31.9108 53.0672 32.2548 53.0672 32.5771C53.0672 33.3902 53.0848 34.1929 53.0942 35.0312C53.0942 35.2296 52.959 35.3592 52.725 35.3592C52.6794 35.3616 52.6338 35.3548 52.591 35.3394C52.5482 35.3239 52.5091 35.3001 52.4761 35.2694C52.443 35.2387 52.4168 35.2017 52.3989 35.1608C52.3811 35.1198 52.372 35.0757 52.3722 35.0312C52.3628 34.6241 52.3628 34.2182 52.3628 33.8477C52.3628 33.4773 52.3628 33.1402 52.3722 32.889C52.3697 32.6435 52.3815 32.3981 52.4075 32.1539C52.3021 32.3343 52.1843 32.5075 52.0547 32.6723C51.8912 32.8638 51.6043 33.2342 51.3491 33.5897C51.3201 33.6367 51.2793 33.6757 51.2305 33.703C51.1818 33.7303 51.1267 33.745 51.0704 33.7457C50.982 33.7448 50.8965 33.7144 50.8282 33.6597C50.7877 33.6256 50.7554 33.5833 50.7335 33.5358C50.7116 33.4882 50.7005 33.4366 50.7012 33.3844C50.7019 33.2904 50.7336 33.1991 50.7917 33.1241C51.2796 32.4786 51.8111 31.8656 52.3828 31.2892C52.3828 30.8924 52.4028 30.3901 52.4098 29.967C51.9888 29.9934 51.5467 30.053 51.1422 30.0885H51.0987C51.0587 30.0879 51.0193 30.0797 50.9826 30.0642C50.946 30.0487 50.9128 30.0263 50.8851 29.9982C50.8573 29.9702 50.8355 29.9371 50.8209 29.9009C50.8063 29.8646 50.7992 29.8259 50.8 29.7869V29.7606C50.796 29.7191 50.8006 29.6773 50.8136 29.6376C50.8265 29.598 50.8476 29.5613 50.8755 29.5298C50.9034 29.4983 50.9376 29.4726 50.9759 29.4544C51.0143 29.4361 51.056 29.4255 51.0987 29.4234C51.5573 29.3798 52.0241 29.3374 52.4275 29.3087C52.4369 28.8764 52.4545 28.4532 52.4815 28.0048C52.491 27.7984 52.6086 27.7021 52.8508 27.7021C52.8948 27.6976 52.9393 27.7024 52.9812 27.7161C53.0231 27.7299 53.0616 27.7522 53.0939 27.7817C53.1262 27.8111 53.1517 27.847 53.1686 27.8869C53.1855 27.9268 53.1934 27.9697 53.1918 28.0128V28.0312C53.1659 28.4452 53.1471 28.8592 53.1295 29.2663C53.1717 29.2614 53.2144 29.2653 53.2549 29.2778C53.2954 29.2903 53.3327 29.3111 53.3643 29.3388C53.3959 29.3665 53.4211 29.4004 53.4382 29.4383C53.4553 29.4763 53.4639 29.5173 53.4634 29.5587C53.4596 29.6243 53.4425 29.6885 53.413 29.7476C53.3836 29.8066 53.3423 29.8594 53.2918 29.9028L53.1095 30.0748Z" fill="#E82629"/>
<path d="M52.7145 35.4523C52.6566 35.4545 52.599 35.4452 52.5449 35.4251C52.4908 35.4049 52.4415 35.3743 52.3999 35.3351C52.3582 35.2959 52.3251 35.2489 52.3026 35.1969C52.2801 35.1449 52.2686 35.089 52.2688 35.0326C52.2606 34.6266 52.2606 34.2195 52.2606 33.8479C52.2606 33.4764 52.2606 33.1358 52.2688 32.8835C52.2688 32.7929 52.2688 32.6633 52.2759 32.5096C52.2194 32.5922 52.1583 32.6667 52.1124 32.7275C51.9607 32.9053 51.6726 33.2757 51.4151 33.6381C51.3805 33.6891 51.3351 33.7324 51.2821 33.7651C51.229 33.7978 51.1695 33.8191 51.1073 33.8277C51.0452 33.8362 50.9819 33.8319 50.9216 33.8148C50.8614 33.7977 50.8055 33.7684 50.7577 33.7287C50.7071 33.6859 50.6665 33.6331 50.6385 33.5737C50.6105 33.5144 50.5958 33.4499 50.5955 33.3846C50.5962 33.2725 50.6337 33.1636 50.7025 33.0738C51.1852 32.4341 51.7113 31.8264 52.277 31.255C52.277 30.9878 52.2864 30.6816 52.2958 30.3789L52.3029 30.0635C52.0854 30.0795 51.8631 30.1036 51.6467 30.1254C51.4739 30.1449 51.3034 30.1633 51.1387 30.177H51.087C50.9824 30.1761 50.8825 30.1348 50.8091 30.0621C50.7357 29.9895 50.6948 29.8914 50.6954 29.7894V29.7596C50.6911 29.7069 50.6976 29.6539 50.7146 29.6037C50.7315 29.5535 50.7586 29.5072 50.7942 29.4673C50.8298 29.4275 50.8732 29.395 50.9219 29.3717C50.9706 29.3484 51.0235 29.3349 51.0776 29.3318C51.4433 29.2974 51.9101 29.2527 52.3241 29.2252C52.3347 28.8353 52.3499 28.4419 52.377 27.997C52.3852 27.8204 52.4722 27.6093 52.8391 27.6093C52.8955 27.6046 52.9522 27.6116 53.0056 27.6298C53.059 27.648 53.1079 27.677 53.149 27.7149C53.1901 27.7528 53.2225 27.7987 53.244 27.8497C53.2656 27.9007 53.2759 27.9556 53.2742 28.0107V28.0348C53.2507 28.3983 53.2342 28.7619 53.2178 29.1208V29.1816C53.296 29.1937 53.3688 29.228 53.4271 29.2802C53.4651 29.3167 53.4951 29.3603 53.5153 29.4084C53.5355 29.4565 53.5455 29.5081 53.5447 29.56C53.5412 29.6379 53.5217 29.7142 53.4873 29.7845C53.453 29.8549 53.4045 29.9177 53.3448 29.9695L53.2013 30.1071V30.2217C53.2029 30.2831 53.1997 30.3444 53.1919 30.4052C53.1919 30.45 53.1837 30.4993 53.1813 30.5532C53.2131 30.5211 53.246 30.489 53.2848 30.4523C53.3919 30.3554 53.5071 30.2676 53.6293 30.1896C54.476 29.5887 55.2568 29.3089 56.0847 29.3089C57.5793 29.3089 58.6235 30.341 58.6235 31.8124C58.6235 32.9787 58.1696 33.8009 57.2371 34.3227C56.6409 34.6553 55.7648 34.8537 54.8347 34.8628C54.556 34.8628 54.3749 34.6851 54.3643 34.3949C54.3591 34.3342 54.3674 34.2731 54.3886 34.2158C54.4098 34.1584 54.4434 34.1062 54.4871 34.0627C54.5309 34.0192 54.5837 33.9854 54.6421 33.9635C54.7004 33.9417 54.7629 33.9324 54.8253 33.9362C55.5684 33.9271 56.334 33.7596 56.7749 33.5085C57.397 33.1472 57.6639 32.6323 57.6639 31.7883C57.6639 30.8273 56.9925 30.1564 56.0306 30.1564C55.3321 30.1564 54.6418 30.419 53.9221 30.9591C53.6553 31.1636 53.3997 31.3818 53.1566 31.6128C53.1484 31.9442 53.1484 32.2688 53.1484 32.5864C53.1484 33.1197 53.1566 33.6495 53.1637 34.192C53.1637 34.4741 53.1731 34.7573 53.1766 35.0463C53.1766 35.3021 52.9955 35.4672 52.7145 35.4672M52.5416 31.7481L52.4911 32.1759C52.465 32.417 52.4532 32.6594 52.4558 32.9018C52.4464 33.1426 52.4464 33.4867 52.4464 33.8479C52.4464 34.2092 52.4464 34.6243 52.4534 35.0303C52.453 35.063 52.4596 35.0954 52.4726 35.1256C52.4856 35.1557 52.5048 35.1829 52.5291 35.2055C52.5534 35.2281 52.5821 35.2456 52.6136 35.2569C52.6451 35.2681 52.6786 35.273 52.7121 35.2711C52.8885 35.2711 52.9861 35.1874 52.9861 35.0326C52.9861 34.7447 52.9791 34.4592 52.9744 34.1794C52.9673 33.6404 52.9591 33.1105 52.9591 32.5738C52.9591 32.2436 52.9591 31.9041 52.9685 31.5589V31.5222L52.9955 31.497C53.251 31.2527 53.5208 31.023 53.8034 30.8089C54.5572 30.2435 55.2839 29.9683 56.0271 29.9683C57.0995 29.9683 57.8474 30.7137 57.8474 31.7802C57.8474 32.6874 57.5452 33.2642 56.8678 33.6576C56.3975 33.9248 55.5978 34.1014 54.8229 34.1163C54.7855 34.1128 54.7477 34.1175 54.7124 34.1301C54.6771 34.1426 54.6451 34.1627 54.6187 34.1889C54.5923 34.215 54.5723 34.2466 54.56 34.2812C54.5477 34.3159 54.5436 34.3528 54.5477 34.3892C54.5536 34.5199 54.6065 34.6816 54.8311 34.6816C55.7295 34.6702 56.5715 34.4821 57.1407 34.1656C58.0108 33.6771 58.4342 32.9041 58.4342 31.8101C58.4342 30.4201 57.4934 29.4867 56.0823 29.4867C55.2851 29.4867 54.563 29.7481 53.7364 30.3341C53.6222 30.4078 53.5138 30.4894 53.4118 30.5784L53.2566 30.7321C53.2154 30.7734 53.1778 30.8124 53.139 30.8536L52.9626 31.0234L52.9896 30.6334C52.9955 30.5474 53.0002 30.4603 53.0061 30.3846C53.0137 30.3299 53.0169 30.2747 53.0155 30.2195V30.0337L53.2142 29.8433C53.2563 29.8081 53.2907 29.7649 53.3153 29.7165C53.34 29.668 53.3544 29.6152 53.3577 29.5612C53.3583 29.5335 53.3531 29.506 53.3423 29.4804C53.3316 29.4547 53.3156 29.4315 53.2954 29.4121C53.2717 29.3924 53.2442 29.3775 53.2145 29.3682C53.1848 29.359 53.1536 29.3556 53.1225 29.3582H53.019L53.0308 29.1116C53.0473 28.7516 53.0637 28.3846 53.0872 28.021C53.0898 27.9892 53.085 27.9572 53.0733 27.9273C53.0615 27.8975 53.0431 27.8706 53.0193 27.8486C52.9955 27.8266 52.967 27.8101 52.9358 27.8003C52.9046 27.7904 52.8716 27.7875 52.8391 27.7917C52.618 27.7917 52.5687 27.8743 52.564 28.0073C52.5357 28.4843 52.5193 28.8972 52.5099 29.3123V29.3949L52.4252 29.4006C51.9913 29.4305 51.4845 29.4763 51.0988 29.5153C51.0675 29.5165 51.0369 29.524 51.0088 29.5374C50.9807 29.5508 50.9558 29.5697 50.9356 29.5931C50.9155 29.6164 50.9005 29.6435 50.8918 29.6728C50.883 29.7021 50.8806 29.7328 50.8847 29.763V29.7883C50.8838 29.8153 50.8883 29.8423 50.8981 29.8676C50.9079 29.8929 50.9228 29.9161 50.9418 29.9359C50.9608 29.9556 50.9836 29.9714 51.0089 29.9825C51.0343 29.9936 51.0616 29.9997 51.0893 30.0004H51.134C51.2881 29.9878 51.4562 29.9683 51.6279 29.95C51.8807 29.9224 52.1406 29.8949 52.3958 29.8789L52.4958 29.8731L52.4852 30.388C52.4758 30.7 52.4675 31.0211 52.4675 31.294V31.3307L52.4417 31.3571C51.8725 31.9301 51.3433 32.5396 50.8577 33.1816C50.8115 33.241 50.7863 33.3135 50.786 33.3881C50.7851 33.4277 50.7932 33.4671 50.8096 33.5033C50.8261 33.5396 50.8505 33.5719 50.8812 33.5979C50.9086 33.6217 50.941 33.6393 50.9761 33.6496C51.0113 33.6599 51.0483 33.6625 51.0846 33.6574C51.1209 33.6523 51.1556 33.6395 51.1862 33.6199C51.2169 33.6003 51.2429 33.5744 51.2622 33.544C51.535 33.1598 51.8196 32.7963 51.9678 32.6209C52.0966 32.46 52.2145 32.2911 52.3205 32.1151L52.5416 31.7481Z" fill="#E82629"/>
<path d="M66.5962 29.9794C66.6427 29.9698 66.6899 29.964 66.7373 29.9622C66.8166 29.9581 66.8947 29.9817 66.9577 30.0288C67.0206 30.0759 67.0643 30.1434 67.0807 30.2191C67.0898 30.2618 67.095 30.3052 67.096 30.3487C67.0946 30.4294 67.0641 30.507 67.0099 30.568C66.9558 30.629 66.8813 30.6695 66.7996 30.6824C65.7412 30.9437 64.7065 31.2889 63.7058 31.7145C62.5593 32.2168 61.9713 32.8591 61.9713 33.4864C61.9713 34.2318 62.5334 34.6091 64.3961 34.6091C65.2334 34.6095 66.0689 34.5327 66.8914 34.3797C66.9265 34.3722 66.9625 34.3691 66.9984 34.3705C67.0425 34.3679 67.0867 34.3739 67.1284 34.3881C67.1701 34.4023 67.2085 34.4244 67.2413 34.4532C67.2742 34.4821 67.3008 34.517 67.3196 34.5559C67.3385 34.5949 67.3492 34.6371 67.3512 34.6802C67.359 34.7105 67.3622 34.7418 67.3606 34.7731C67.3597 34.8635 67.3255 34.9506 67.2641 35.0184C67.2028 35.0862 67.1185 35.1302 67.0266 35.1423C66.3493 35.2868 65.3909 35.3476 64.3631 35.3476C62.21 35.3556 61.2175 34.7742 61.2175 33.4783C61.2175 32.6136 61.9548 31.7719 63.2166 31.1733C62.9456 30.3451 62.7311 29.5004 62.5745 28.6446C62.5668 28.6193 62.5637 28.5929 62.5651 28.5666C62.5687 28.4832 62.6027 28.4039 62.6609 28.3427C62.7191 28.2816 62.7977 28.2426 62.8826 28.2329C62.9143 28.2262 62.9467 28.2235 62.9791 28.2248C63.0652 28.2188 63.1504 28.2459 63.2164 28.3003C63.2823 28.3548 63.3238 28.4322 63.3318 28.5161C63.4665 29.318 63.6631 30.1089 63.9198 30.882C64.7912 30.5221 65.687 30.2213 66.6009 29.9817M66.4963 28.07C66.5391 28.0683 66.5819 28.076 66.6214 28.0924C66.6608 28.1089 66.696 28.1338 66.7244 28.1652C67.0179 28.4506 67.2745 28.7699 67.4887 29.1159C67.5288 29.1835 67.5499 29.2603 67.5499 29.3384C67.5472 29.3728 67.5376 29.4063 67.5216 29.437C67.5056 29.4678 67.4835 29.4951 67.4566 29.5175C67.4297 29.5399 67.3986 29.5568 67.3649 29.5674C67.3313 29.578 67.2958 29.582 67.2606 29.5792C67.2118 29.5811 67.1636 29.568 67.1227 29.5419C67.0818 29.5158 67.0503 29.4779 67.0325 29.4336C66.828 29.1036 66.5917 28.7933 66.3269 28.507C66.2734 28.4515 66.2425 28.3789 66.2399 28.3028C66.2455 28.2405 66.2747 28.1824 66.3219 28.1399C66.3691 28.0975 66.4309 28.0738 66.4951 28.0735M67.5405 27.6147C67.5848 27.6156 67.6285 27.6251 67.6689 27.6429C67.7093 27.6606 67.7456 27.6862 67.7757 27.718C68.0522 28.0005 68.2938 28.3139 68.4953 28.6515C68.531 28.7176 68.5496 28.7912 68.5494 28.8659C68.5432 28.9322 68.5115 28.9938 68.4607 29.0382C68.4099 29.0827 68.3437 29.1067 68.2754 29.1056C68.2282 29.1064 68.1817 29.094 68.1414 29.0698C68.1012 29.0456 68.0689 29.0107 68.0485 28.9691C67.8623 28.6437 67.6407 28.3388 67.3876 28.0597C67.353 28.0337 67.3253 27.9998 67.3071 27.9611C67.2888 27.9223 67.2806 27.8798 67.2829 27.8372C67.2916 27.7767 67.3219 27.7211 67.3687 27.6803C67.4154 27.6396 67.4755 27.6163 67.5381 27.6147" fill="#E82629"/>
<path d="M64.3138 35.4361C62.9767 35.4361 62.0877 35.2067 61.5927 34.7319C61.2728 34.4234 61.1223 34.0198 61.1223 33.498C61.1223 32.6276 61.8432 31.7778 63.1049 31.1734C62.8457 30.3739 62.6388 29.5592 62.4852 28.7342C62.4774 28.7042 62.4742 28.6733 62.4758 28.6424C62.4789 28.539 62.5199 28.4401 62.5912 28.3635C62.6626 28.2869 62.7597 28.2378 62.865 28.225C62.9036 28.2164 62.9431 28.2129 62.9826 28.2147C63.0903 28.2091 63.1961 28.2438 63.2783 28.3118C63.3605 28.3799 63.4129 28.476 63.4248 28.5805C63.5541 29.3363 63.7388 30.0821 63.9775 30.8122C64.8253 30.4707 65.6954 30.1845 66.5821 29.9555C66.8961 29.8959 67.0913 29.9991 67.1701 30.2548C67.1826 30.3048 67.1897 30.3559 67.1913 30.4074C67.1896 30.5074 67.1519 30.6036 67.0848 30.6793C67.0178 30.7549 66.9256 30.8052 66.8244 30.8213C65.7721 31.078 64.7426 31.4167 63.7458 31.834C62.6734 32.303 62.0583 32.9131 62.0583 33.5083C62.0583 34.1218 62.4558 34.5312 64.3937 34.5312C65.2248 34.5301 66.0538 34.4533 66.8702 34.3019C66.9112 34.2935 66.9531 34.29 66.9949 34.2916C67.1049 34.2871 67.2125 34.3243 67.2949 34.3956C67.3774 34.4668 67.4283 34.5664 67.437 34.6734C67.4449 34.7077 67.448 34.7428 67.4464 34.7778C67.4455 34.8881 67.4038 34.9943 67.3291 35.0771C67.2544 35.1599 67.1516 35.2136 67.0396 35.2285C66.4093 35.3638 65.4803 35.4361 64.3573 35.4361H64.3138ZM62.9756 28.3913C62.9503 28.3901 62.925 28.392 62.9003 28.397C62.8392 28.4096 62.6545 28.4612 62.6545 28.6424C62.6526 28.6592 62.6526 28.6761 62.6545 28.6929C62.8124 29.5393 63.0281 30.3745 63.3001 31.1929L63.3248 31.2663L63.2531 31.3007C62.0125 31.881 61.3011 32.6837 61.3011 33.498C61.3011 33.9705 61.4386 34.3328 61.7232 34.6058C62.1795 35.045 63.0261 35.2583 64.3102 35.2583H64.3538C65.465 35.2583 66.3775 35.1884 66.9972 35.0565C67.0684 35.0495 67.1344 35.0172 67.1827 34.9658C67.2311 34.9144 67.2584 34.8475 67.2595 34.7778C67.2607 34.754 67.2588 34.73 67.2536 34.7067C67.2533 34.674 67.2462 34.6416 67.2327 34.6117C67.2192 34.5817 67.1996 34.5547 67.1751 34.5324C67.1505 34.5101 67.1216 34.4929 67.09 34.4818C67.0584 34.4708 67.0249 34.4661 66.9914 34.4682C66.9634 34.467 66.9354 34.4689 66.9079 34.4739C66.0777 34.6263 65.2349 34.703 64.3902 34.7033C62.6028 34.7033 61.8725 34.3592 61.8725 33.5037C61.8725 32.8271 62.5099 32.1746 63.6658 31.6688C64.6727 31.2481 65.7124 30.9064 66.775 30.647C66.8365 30.6395 66.8933 30.6109 66.9353 30.5664C66.9773 30.5219 67.0017 30.4643 67.0043 30.4039C67.003 30.3696 66.9986 30.3355 66.9914 30.3018C66.9384 30.131 66.8208 30.0862 66.6151 30.1252C65.7069 30.3597 64.8165 30.6555 63.9504 31.0106L63.8599 31.0473L63.8281 30.9567C63.5694 30.1888 63.3728 29.4024 63.2402 28.6046C63.2345 28.5424 63.2039 28.4849 63.155 28.4445C63.1061 28.4042 63.0429 28.3842 62.9791 28.389M67.2595 29.7284C67.194 29.7305 67.1294 29.7132 67.0742 29.6788C67.019 29.6445 66.9758 29.5946 66.9502 29.5358C66.749 29.2164 66.5175 28.9162 66.2588 28.639C66.1898 28.5683 66.1503 28.4751 66.1482 28.3775C66.153 28.2914 66.1916 28.2104 66.256 28.1513C66.3203 28.0922 66.4055 28.0594 66.4939 28.0599C66.5485 28.0571 66.6031 28.066 66.6538 28.0858C66.7046 28.1056 66.7503 28.1359 66.7879 28.1745C67.0857 28.4627 67.3471 28.7845 67.5664 29.1333C67.6153 29.2133 67.6409 29.3049 67.6405 29.3982C67.6335 29.4904 67.5897 29.5762 67.5184 29.6371C67.4471 29.6981 67.3541 29.7292 67.2595 29.7239M66.4939 28.233C66.4541 28.234 66.416 28.2487 66.3863 28.2745C66.3566 28.3004 66.3372 28.3356 66.3317 28.3741C66.3348 28.4286 66.3577 28.4802 66.3963 28.5197C66.664 28.8061 66.9031 29.1167 67.1101 29.4475C67.1536 29.5323 67.1983 29.5484 67.2595 29.5484C67.306 29.5536 67.3527 29.541 67.3898 29.5132C67.427 29.4853 67.4515 29.4445 67.4582 29.3993C67.4587 29.3403 67.4433 29.2821 67.4135 29.2307C67.2017 28.8925 66.9486 28.5806 66.6597 28.3018C66.6394 28.2787 66.6138 28.2605 66.5851 28.2485C66.5563 28.2366 66.5251 28.2313 66.4939 28.233ZM68.2778 29.2502C68.215 29.2517 68.1531 29.2357 68.0992 29.2043C68.0453 29.1728 68.0016 29.1271 67.9733 29.0725C67.7898 28.7557 67.5722 28.4589 67.3241 28.1872C67.2675 28.1449 67.226 28.0861 67.2059 28.0194C67.1857 27.9527 67.1878 27.8814 67.2119 27.8159C67.236 27.7504 67.2808 27.6941 67.3399 27.655C67.3989 27.616 67.4692 27.5963 67.5405 27.5988C67.6525 27.6005 67.7594 27.6449 67.838 27.7227C68.121 28.0093 68.3692 28.3268 68.5777 28.6688C68.6205 28.7476 68.6427 28.8354 68.6424 28.9245C68.636 29.0141 68.5947 29.0978 68.5268 29.1584C68.459 29.219 68.3698 29.2519 68.2778 29.2502ZM67.5405 27.7755C67.4664 27.7755 67.3771 27.8477 67.3771 27.9073C67.3771 27.967 67.3876 27.9991 67.4558 28.0656C67.7138 28.3467 67.9397 28.6543 68.1297 28.983C68.1814 29.061 68.2178 29.0748 68.2778 29.0748C68.3216 29.0758 68.3643 29.0612 68.3978 29.0338C68.4314 29.0064 68.4535 28.9679 68.4601 28.9257C68.4602 28.8657 68.4452 28.8067 68.4166 28.7537C68.2181 28.4279 67.9813 28.1257 67.711 27.8534C67.6889 27.8298 67.662 27.8108 67.6321 27.7976C67.6022 27.7844 67.5698 27.7772 67.537 27.7766" fill="#E82629"/>
<path d="M45.4777 28.7006C45.5398 28.7011 45.6007 28.7176 45.6542 28.7484C45.7077 28.7792 45.7518 28.8233 45.7823 28.8761C46.6454 30.0149 47.2839 31.7867 47.4098 33.2855V33.3475C47.4098 33.5768 47.3216 33.7247 47.0946 33.7683C47.0622 33.7756 47.029 33.7787 46.9958 33.7775C46.9483 33.7794 46.9009 33.7718 46.8565 33.7554C46.8121 33.7389 46.7715 33.7139 46.7372 33.6817C46.7029 33.6496 46.6757 33.611 46.6571 33.5684C46.6385 33.5257 46.6289 33.4798 46.6289 33.4335C46.5019 31.9621 45.9528 30.383 45.1438 29.2683C45.1 29.2034 45.0752 29.128 45.072 29.0504C45.0717 28.9894 45.0894 28.9296 45.1229 28.8782C45.1565 28.8267 45.2046 28.7858 45.2613 28.7603C45.3259 28.72 45.4011 28.6988 45.4777 28.6995" fill="#E82629"/>
<path d="M46.9958 33.8684C46.9367 33.8707 46.8777 33.8614 46.8224 33.8411C46.767 33.8209 46.7163 33.79 46.6734 33.7504C46.6304 33.7107 46.596 33.6631 46.5722 33.6103C46.5484 33.5575 46.5357 33.5006 46.5348 33.4429C46.4078 31.9521 45.8587 30.4119 45.0673 29.3236C45.0125 29.2423 44.9815 29.1479 44.9779 29.0507C44.9778 28.9724 45.0007 28.8957 45.0438 28.8296C45.0869 28.7636 45.1485 28.711 45.2213 28.678C45.2986 28.6323 45.3873 28.6085 45.4777 28.6091C45.5555 28.6091 45.6319 28.6293 45.699 28.6676C45.7662 28.7059 45.8217 28.7609 45.8598 28.827C46.7124 29.9509 47.3733 31.7411 47.5061 33.2789V33.3477C47.5061 33.7067 47.2921 33.8236 47.1146 33.858C47.0759 33.8661 47.0365 33.8696 46.997 33.8684" fill="#E82629"/>
<path d="M45.4778 28.7917C45.4187 28.7916 45.3608 28.808 45.3108 28.8387C45.2683 28.8568 45.2321 28.8864 45.2064 28.924C45.1808 28.9616 45.1668 29.0057 45.1661 29.0509C45.1693 29.1122 45.1892 29.1716 45.2238 29.2229C46.0293 30.3318 46.5914 31.9052 46.7207 33.4282C46.7193 33.4634 46.7255 33.4985 46.739 33.5312C46.7524 33.5638 46.7728 33.5934 46.7988 33.6179C46.8248 33.6423 46.8557 33.6612 46.8897 33.6732C46.9237 33.6851 46.9599 33.69 46.9959 33.6874C47.0216 33.6885 47.0473 33.6862 47.0723 33.6805C47.2452 33.6461 47.3169 33.5486 47.3169 33.3479V33.2871C47.1899 31.7871 46.542 30.0337 45.7071 28.9293C45.6848 28.8885 45.6519 28.8541 45.6116 28.8297C45.5713 28.8053 45.5251 28.7918 45.4778 28.7905" fill="#E82629"/>
<path d="M41.2398 28.2534C41.5279 28.2534 41.5985 28.4014 41.5985 28.6215V29.7443C41.5985 30.305 41.6079 30.8303 41.6337 31.2351C41.7243 32.2879 41.8772 32.9633 42.1464 33.4897C42.264 33.7191 42.4992 33.8842 42.6956 33.8842C42.7983 33.8886 42.9003 33.8657 42.9907 33.8178C43.081 33.7699 43.1562 33.6989 43.2083 33.6124C43.3964 33.3406 43.5611 32.8842 43.6481 32.2798C43.6845 32.0596 43.7833 31.9645 43.9727 31.9645C44.0031 31.9633 44.0335 31.966 44.0632 31.9725C44.269 31.9989 44.4042 32.1032 44.4042 32.3165C44.4057 32.3429 44.4025 32.3692 44.3948 32.3945C44.269 33.211 44.035 33.8074 43.7386 34.1847C43.4423 34.562 43.0813 34.7019 42.7403 34.7019C42.364 34.7019 41.9583 34.5344 41.6525 34.0883C41.2657 33.5149 40.9882 32.5619 40.8976 31.2901C40.8423 30.5894 40.8341 29.5631 40.8341 28.625C40.8341 28.3956 40.9882 28.2569 41.2398 28.2569" fill="#E82629"/>
<path d="M42.7414 34.7893C42.506 34.786 42.2754 34.7242 42.0713 34.6098C41.8672 34.4955 41.6964 34.3323 41.5749 34.1356C41.1586 33.5232 40.8905 32.5404 40.8035 31.2927C40.7482 30.5782 40.74 29.5415 40.74 28.6218C40.74 28.3431 40.9352 28.1631 41.2398 28.1631C41.6925 28.1631 41.6925 28.5071 41.6925 28.6218V29.7445C41.6925 30.3798 41.7042 30.8649 41.7278 31.2273C41.8171 32.2675 41.963 32.9326 42.2299 33.4475C42.3322 33.6436 42.5309 33.7916 42.7003 33.7916C42.7871 33.7961 42.8735 33.777 42.9499 33.7365C43.0263 33.6961 43.0896 33.6357 43.133 33.5622C43.3258 33.2858 43.4775 32.826 43.5599 32.2675C43.6034 32.0014 43.7398 31.873 43.9773 31.873C44.0169 31.8716 44.0565 31.8759 44.0949 31.8856C44.207 31.8901 44.3127 31.9378 44.3888 32.0182C44.4648 32.0986 44.5051 32.2052 44.5006 32.3145C44.5032 32.3533 44.498 32.3923 44.4853 32.4292C44.3677 33.2056 44.1325 33.8386 43.815 34.2434C43.5152 34.6047 43.1448 34.7962 42.7438 34.7962M41.2398 28.3454C41.0375 28.3454 40.9281 28.4441 40.9281 28.6218C40.9281 29.5392 40.9352 30.5714 40.9905 31.2801C41.074 32.4796 41.3374 33.459 41.7313 34.0324C42.0535 34.5049 42.458 34.6058 42.7414 34.6058C43.0942 34.6058 43.3999 34.443 43.6657 34.1218C43.9632 33.7446 44.1843 33.139 44.3019 32.3764C44.309 32.3558 44.3122 32.334 44.3113 32.3122C44.3113 32.2182 44.2842 32.0897 44.0502 32.0611C44.0248 32.055 43.9987 32.0523 43.9726 32.053C43.855 32.053 43.7739 32.0932 43.7374 32.2916C43.6504 32.8764 43.4893 33.365 43.2812 33.6608C43.221 33.7596 43.1346 33.8407 43.0311 33.8956C42.9277 33.9505 42.8109 33.9771 42.6932 33.9728C42.458 33.9728 42.1946 33.7858 42.0617 33.529C41.7866 32.99 41.6302 32.3053 41.5384 31.2354C41.5149 30.8672 41.5032 30.3787 41.5032 29.7388V28.6161C41.5032 28.4062 41.4385 28.3397 41.2374 28.3397" fill="#E82629"/>
</svg>
